<svg width="93" height="116" viewBox="0 0 93 116" fill="none" xmlns="http://www.w3.org/2000/svg">
<path d="M68.5 4.5C68.9 4.5 73 5.83333 75 6.5L82 13.5L79 15.5L84 24.5L88 26L87 29.5L83.5 28L79 26.5L75.5 29L73.5 32L73 36L76 37L79.5 39.5L77.5 45L74.5 49.5L76 51.5L79 49.5V52.5L75.5 53.5L71.5 56.5L73 59L77.5 62.5L81 62L79.5 65L81 67L77.5 69L76 72L77 73.5L75.5 77L77 80.5L78.5 84.5L81.5 87.5L84.5 86.5L88 89L89 91L92.5 92L92 96L92.5 100L92 101.444L85 106.5L77.5 109L73.5 115C71 115.167 65.9 115.4 65.5 115C65.1 114.6 61 113.167 59 112.5L55 107.5L48.5 102L45 106L39.5 107.5L36.5 106.5L34.5 104L41.5 100H36.5L32 95L27 97L22.5 98L19 101.5L16.5 104H11.5L9 99.5L5 100L0 95L5 96L8.5 91.5L6.5 89L0 88.5C0.666667 87.5 2.2 85.5 3 85.5C3.8 85.5 5.66667 84.5 6.5 84L8.5 79L13 81L17.5 78.5L22 74H27L34.5 69.5L41.5 64L45 51.5L42.5 45.5L46.5 41L42.5 39.5L42 33L36.5 30.5L32 32L28.5 37L25 36.5L20 37L22.5 31L31 25L35 19.5L32 18L27 13L22.5 8.5L24 5.5L27 2L34 0L39.5 8L43 7.5C44.6667 8.16667 48.1 9.5 48.5 9.5C48.9 9.5 51 6.5 52 5L59.5 8.5C62.3333 7.16667 68.1 4.5 68.5 4.5Z" fill="#D9D9D9"/>
</svg>
