<svg width="351" height="513" viewBox="0 0 351 513" fill="none" xmlns="http://www.w3.org/2000/svg">
<path d="M99.5 503.5L94.5 510L91.5 507.5L93 501.5L98.5 500L104 498.5L109.5 494L114 487.5L117.5 481.5L123 479.5L125 475.5L131 468V462.5C131.667 460.5 133.1 456.5 133.5 456.5C133.9 456.5 137 457.833 138.5 458.5L141.5 456.5L143.5 449.5L149.5 445.5H158.5H167L172.5 447.5H179.5L185.5 446.5V440.5L190 434.5C192.167 432.833 196.6 429.3 197 428.5C197.4 427.7 204.167 419.5 207.5 415.5L199 421L190 427.5L182.5 430L178.5 436C176 436.167 170.9 436.4 170.5 436C170.1 435.6 166 434.167 164 433.5L160 428.5L153.5 423L150 427L144.5 428.5L141.5 427.5L139.5 425L146.5 421H141.5L137 416L132 418L127.5 419L124 422.5L121.5 425H116.5L114 420.5L110 421L105 416L110 417L113.5 412.5L111.5 410L105 409.5C105.667 408.5 107.2 406.5 108 406.5C108.8 406.5 110.667 405.5 111.5 405L113.5 400L118 402L122.5 399.5L127 395H132L139.5 390.5L146.5 385L150 372.5L147.5 366.5L151.5 362L147.5 360.5L147 354L141.5 351.5L137 353L133.5 358L130 357.5L125 358L127.5 352L136 346L140 340.5L137 339L132 334L127.5 329.5L129 326.5L132 323L139 321L144.5 329L148 328.5C149.667 329.167 153.1 330.5 153.5 330.5C153.9 330.5 156 327.5 157 326L164.5 329.5C167.333 328.167 173.1 325.5 173.5 325.5C173.9 325.5 178 326.833 180 327.5L181.5 320.5L191.5 327.5L184.5 319L182.5 312L188.5 304.5L184 299.5V294.5L189.5 291C189.333 289.167 189.1 285.4 189.5 285C189.9 284.6 191 279.5 191.5 277L188 280L185 277.5L181 284.5L177 282L179 274L174.5 276L169.5 265L164.5 256.5L168 246.5L172 238L177.5 232L167 230.5L165.5 237L158 238L153.5 242.5H146L139.5 236L137 238.5L140 244.5L137 249L129 241.5L122.5 237.5L118.5 240.5L122 250H118.5L115 241.5L110 234L111.5 229L116 233L115 225.5L120.5 216L123 207L128.5 202V196.5L116.5 185.5L105 177.5L101.5 188.5L108 185.5L111.5 190.5L115.5 198.5L112.5 203L106.5 202.5L102.5 192.5L100.5 194.5L97 203L98.5 208.5C96 209.667 91 212.1 91 212.5C91 212.9 88.6667 210.667 87.5 209.5L91 203L92.5 189.5L90 190.5L88.5 187L92 184.5L93.5 187.5L96 184.5L93.5 182.5L93 176.5L91 171.5L92.5 168.5L96 161.5L94.5 157.5L89 169L86.5 174.5L84 179.5L79.5 182.5L82 188L77.5 191.5L72.5 194.5L69 192L72 188.5L69.5 183L66.5 188.5L63 187.5L65.5 178L70 176.5L76 172.5C76.8333 172.833 78.6 173.5 79 173.5C79.4 173.5 81.1667 170.5 82 169L88 162.5L91 156.5L88 154L92.5 152.5L96.5 145L100 138.5L96.5 138L107.5 124L92.5 139.5V146L89 149.5L85.5 147.5L81.5 149.5L74.5 151.5L69.5 152.5L65.5 150L67.5 147.5H73.5L76 142.5L74.5 141L70 139.5L70.5 136.5V131L74.5 130C76.8333 129.833 81.6 129.5 82 129.5C82.4 129.5 78.8333 128.5 77 128L73 122.5L84 121L89.5 116L85 112.5L89.5 105L90.5 96.5L82.5 105L80 103.5L82.5 96L79 99L76 95L71.5 96L66.5 92L65.5 84.5L64 81.5L60.5 85.5L53 79.5L56 75H59.5L60 69L68.5 74.5L66.5 67.5L70.5 61.5L78 72L77 82.5L79.5 78L83.5 70L82.5 85.5L84 90.5L90.5 89L95 82.5L88.5 83.5L86.5 76L88 70.5L95 72L88 64.5L91.5 61L88 57.5L89.5 51.5L96 55.5L94.5 48L99 52.5L104.5 49L112.5 50.5L102 42.5V37L106 38L107.5 35L103 27L115.5 26.5L111 18L115 14L113.5 10L117 2.5L126 4L127 10L134 5L135 12L144 7.5L150.5 4L158.5 5L164 1.5L171.5 2.5L173 0H182L184.5 3L180 7.5L184 12L180 20.5L171.5 25.5L164 34.5L156.5 41.5L150.5 49L144.5 52.5H159L152.5 60.5L149 59L137.5 68L148 63.5C147.5 65.3333 146.4 69 146 69C145.6 69 140.833 73.6667 138.5 76L154 69L163 66L173.5 60.5L183.5 64.5L192 62L208 64.5L220.5 63L226.5 69.5L228 77.5L219 90.5V100L215.5 105.5L213 115.5L203.5 124.5V131L196.5 138.5C192.833 138.667 185.5 138.9 185.5 138.5C185.5 138.1 180.5 143.667 178 146.5L192 141.5V146.5L199.5 151L193 156H186.5L179.5 165L172 166.5L164.5 164L161 166.5L174 169.5L185.5 172L194.5 165L200.5 168L205.5 170.5L215 174L222.5 185L233.5 196L235 212.5L242.5 233L249 251.5L266.5 258.5L275 268.5L286 281L283 288.5L293.5 309.5L281 305.5H265.5L283 308.5L293 317.5L301.5 333L297 343L291.5 353L304 356.5L311 347.5H328L345 356.5L351 370L347.5 384L345 397.5L337 403H331.5L333 409L331.5 414L323 413L315.5 415.5L323 418L319.5 426.5L304 431.5H313L311 436L319.5 433.5V438L339.5 436L337 440L339.5 447L328 452L323 461L311 465L297 471.5L283 467L263 471.5L251 468.5L244.5 465L238 471.5H229L222 479.5L210 477L204.5 481.5L192.5 473.5L171 477L167.5 492L163 499.5H158.5L153 494.5L145 492L126 494.5L114 501.5V510L109.5 512.5L99.5 503.5Z" fill="#D9D9D9"/>
<path d="M243.5 470.5L236.5 474L246.5 480L249.5 477.5L251.5 472.5L243.5 470.5Z" fill="#D9D9D9"/>
<path d="M67.5 285.5L72.5 289.5H76L72.5 283L78.5 286.5L83 283L85.5 279.5V276L89.5 273L93 276L96.5 272V268H91.5L93 262L91.5 255H94L96.5 267H99.5V261L96.5 248.5L89 249L83 252.5L84.5 248.5L93 242.5L87.5 238L81 228.5V226L78.5 221.5L77 217H71.5L66 214.5L59.5 217L54 219.5L47 217L45 214.5L44 213L36 219.5L27.5 230L21 240.5L10.5 242.5L9 248.5L10.5 257L0 263.5L10.5 277.5L17 283L25.5 287.5L28.5 281.5L33.5 273L36 263.5L40.5 265.5L47 273L50 281.5L56 286.5L63 284.5L67.5 285.5Z" fill="#D9D9D9"/>
</svg>
