<svg width="260" height="335" viewBox="0 0 260 335" fill="none" xmlns="http://www.w3.org/2000/svg">
<path d="M8 325.5L3 332L0 329.5L1.5 323.5L7 322L12.5 320.5L18 316L22.5 309.5L26 303.5L31.5 301.5L33.5 297.5L39.5 290V284.5C40.1667 282.5 41.6 278.5 42 278.5C42.4 278.5 45.5 279.833 47 280.5L50 278.5L52 271.5L58 267.5H67H75.5L81 269.5H88L94 268.5V262.5L98.5 256.5C100.667 254.833 105.1 251.3 105.5 250.5C105.9 249.7 112.667 241.5 116 237.5L107.5 243L105.5 244.444L106 243L105.5 239L106 235L102.5 234L101.5 232L98 229.5L95 230.5L92 227.5L90.5 223.5L89 220L90.5 216.5L89.5 215L91 212L94.5 210L93 208L94.5 205L91 205.5L86.5 202L85 199.5L89 196.5L92.5 195.5V192.5L89.5 194.5L88 192.5L91 188L93 182.5L89.5 180L86.5 179L87 175L89 172L92.5 169.5L97 171L100.5 172.5L101.5 169L97.5 167.5L92.5 158.5L95.5 156.5L88.5 149.5L90 142.5L100 149.5L93 141L91 134L97 126.5L92.5 121.5V116.5L98 113C97.8333 111.167 97.6 107.4 98 107C98.4 106.6 99.5 101.5 100 99L96.5 102L93.5 99.5L89.5 106.5L85.5 104L87.5 96L83 98L78 87L73 78.5L76.5 68.5L80.5 60L86 54L87.5 49H91L95 43L101 38.5L100 37L105 32H108.5L110.5 28L115 25.5L110 15.5L113 13.5L117 8L126.227 0L131 7L142 18L143.5 34.5L151 55L157.5 73.5L175 80.5L183.5 90.5L194.5 103L191.5 110.5L202 131.5L189.5 127.5H174L191.5 130.5L201.5 139.5L210 155L205.5 165L200 175L212.5 178.5L219.5 169.5H236.5L253.5 178.5L259.5 192L256 206L253.5 219.5L245.5 225H240L241.5 231L240 236L231.5 235L224 237.5L231.5 240L228 248.5L212.5 253.5H221.5L219.5 258L228 255.5V260L248 258L245.5 262L248 269L236.5 274L231.5 283L219.5 287L205.5 293.5L191.5 289L171.5 293.5L159.5 290.5L153 287L146.5 293.5H137.5L130.5 301.5L118.5 299L113 303.5L101 295.5L79.5 299L76 314L71.5 321.5H67L61.5 316.5L53.5 314L34.5 316.5L22.5 323.5V332L18 334.5L8 325.5Z" fill="#D9D9D9"/>
</svg>
