<svg width="100" height="77" viewBox="0 0 100 77" fill="none" xmlns="http://www.w3.org/2000/svg">
<path d="M67.5 72.5L72.5 76.5H76L72.5 70L78.5 73.5L83 70L85.5 66.5V63L89.5 60L93 63L96.5 59V55H91.5L93 49L91.5 42H94L96.5 54H99.5V48L96.5 35.5L89 36L83 39.5L84.5 35.5L93 29.5L87.5 25L81 15.5V13L78.5 8.5L77 4H71.5L66 1.5L59.5 4L54 6.5L47 4L45 1.5L44 0L36 6.5L27.5 17L21 27.5L10.5 29.5L9 35.5L10.5 44L0 50.5L10.5 64.5L17 70L25.5 74.5L28.5 68.5L33.5 60L36 50.5L40.5 52.5L47 60L50 68.5L56 73.5L63 71.5L67.5 72.5Z" fill="#D9D9D9"/>
</svg>
