<svg width="175" height="250" viewBox="0 0 175 250" fill="none" xmlns="http://www.w3.org/2000/svg">
<path d="M152.5 170.5L162 174L164.727 178L155.5 186L151.5 191.5L148.5 193.5L153.5 203.5L149 206L147 210H143.5L138.5 215L139.5 216.5L133.5 221L129.5 227H126L124.5 232L114 230.5L112.5 237L105 238L100.5 242.5H93L86.5 236L84 238.5L87 244.5L84 249L76 241.5L69.5 237.5L65.5 240.5L69 250H65.5L62 241.5L57 234L58.5 229L63 233L62 225.5L67.5 216L70 207L75.5 202V196.5L63.5 185.5L52 177.5L48.5 188.5L55 185.5L58.5 190.5L62.5 198.5L59.5 203L53.5 202.5L49.5 192.5L47.5 194.5L44 203L45.5 208.5C43 209.667 38 212.1 38 212.5C38 212.9 35.6667 210.667 34.5 209.5L38 203L39.5 189.5L37 190.5L35.5 187L39 184.5L40.5 187.5L43 184.5L40.5 182.5L40 176.5L38 171.5L39.5 168.5L43 161.5L41.5 157.5L36 169L33.5 174.5L31 179.5L26.5 182.5L29 188L24.5 191.5L19.5 194.5L16 192L19 188.5L16.5 183L13.5 188.5L10 187.5L12.5 178L17 176.5L23 172.5C23.8333 172.833 25.6 173.5 26 173.5C26.4 173.5 28.1667 170.5 29 169L35 162.5L38 156.5L35 154L39.5 152.5L43.5 145L47 138.5L43.5 138L54.5 124L39.5 139.5V146L36 149.5L32.5 147.5L28.5 149.5L21.5 151.5L16.5 152.5L12.5 150L14.5 147.5H20.5L23 142.5L21.5 141L17 139.5L17.5 136.5V131L21.5 130C23.8333 129.833 28.6 129.5 29 129.5C29.4 129.5 25.8333 128.5 24 128L20 122.5L31 121L36.5 116L32 112.5L36.5 105L37.5 96.5L29.5 105L27 103.5L29.5 96L26 99L23 95L18.5 96L13.5 92L12.5 84.5L11 81.5L7.5 85.5L0 79.5L3 75H6.5L7 69L15.5 74.5L13.5 67.5L17.5 61.5L25 72L24 82.5L26.5 78L30.5 70L29.5 85.5L31 90.5L37.5 89L42 82.5L35.5 83.5L33.5 76L35 70.5L42 72L35 64.5L38.5 61L35 57.5L36.5 51.5L43 55.5L41.5 48L46 52.5L51.5 49L59.5 50.5L49 42.5V37L53 38L54.5 35L50 27L62.5 26.5L58 18L62 14L60.5 10L64 2.5L73 4L74 10L81 5L82 12L91 7.5L97.5 4L105.5 5L111 1.5L118.5 2.5L120 0H129L131.5 3L127 7.5L131 12L127 20.5L118.5 25.5L111 34.5L103.5 41.5L97.5 49L91.5 52.5H106L99.5 60.5L96 59L84.5 68L95 63.5C94.5 65.3333 93.4 69 93 69C92.6 69 87.8333 73.6667 85.5 76L101 69L110 66L120.5 60.5L130.5 64.5L139 62L155 64.5L167.5 63L173.5 69.5L175 77.5L166 90.5V100L162.5 105.5L160 115.5L150.5 124.5V131L143.5 138.5C139.833 138.667 132.5 138.9 132.5 138.5C132.5 138.1 127.5 143.667 125 146.5L139 141.5V146.5L146.5 151L140 156H133.5L126.5 165L119 166.5L111.5 164L108 166.5L121 169.5L132.5 172L141.5 165L147.5 168L152.5 170.5Z" fill="#D9D9D9"/>
</svg>
