<svg width="298" height="513" viewBox="0 0 298 513" fill="none" xmlns="http://www.w3.org/2000/svg">
<path d="M46.5 503.5L41.5 510L38.5 507.5L40 501.5L45.5 500L51 498.5L56.5 494L61 487.5L64.5 481.5L70 479.5L72 475.5L78 468V462.5C78.6667 460.5 80.1 456.5 80.5 456.5C80.9 456.5 84 457.833 85.5 458.5L88.5 456.5L90.5 449.5L96.5 445.5H105.5H114L119.5 447.5H126.5L132.5 446.5V440.5L137 434.5C139.167 432.833 143.6 429.3 144 428.5C144.4 427.7 151.167 419.5 154.5 415.5L146 421L137 427.5L129.5 430L125.5 436C123 436.167 117.9 436.4 117.5 436C117.1 435.6 113 434.167 111 433.5L107 428.5L100.5 423L97 427L91.5 428.5L88.5 427.5L86.5 425L93.5 421H88.5L84 416L79 418L74.5 419L71 422.5L68.5 425H63.5L61 420.5L57 421L52 416L57 417L60.5 412.5L58.5 410L52 409.5C52.6667 408.5 54.2 406.5 55 406.5C55.8 406.5 57.6667 405.5 58.5 405L60.5 400L65 402L69.5 399.5L74 395H79L86.5 390.5L93.5 385L97 372.5L94.5 366.5L98.5 362L94.5 360.5L94 354L88.5 351.5L84 353L80.5 358L77 357.5L72 358L74.5 352L83 346L87 340.5L84 339L79 334L74.5 329.5L76 326.5L79 323L86 321L91.5 329L95 328.5C96.6667 329.167 100.1 330.5 100.5 330.5C100.9 330.5 103 327.5 104 326L111.5 329.5C114.333 328.167 120.1 325.5 120.5 325.5C120.9 325.5 125 326.833 127 327.5L128.5 320.5L138.5 327.5L131.5 319L129.5 312L135.5 304.5L131 299.5V294.5L136.5 291C136.333 289.167 136.1 285.4 136.5 285C136.9 284.6 138 279.5 138.5 277L135 280L132 277.5L128 284.5L124 282L126 274L121.5 276L116.5 265L111.5 256.5L115 246.5L119 238L124.5 232L114 230.5L112.5 237L105 238L100.5 242.5H93L86.5 236L84 238.5L87 244.5L84 249L76 241.5L69.5 237.5L65.5 240.5L69 250H65.5L62 241.5L57 234L58.5 229L63 233L62 225.5L67.5 216L70 207L75.5 202V196.5L63.5 185.5L52 177.5L48.5 188.5L55 185.5L58.5 190.5L62.5 198.5L59.5 203L53.5 202.5L49.5 192.5L47.5 194.5L44 203L45.5 208.5C43 209.667 38 212.1 38 212.5C38 212.9 35.6667 210.667 34.5 209.5L38 203L39.5 189.5L37 190.5L35.5 187L39 184.5L40.5 187.5L43 184.5L40.5 182.5L40 176.5L38 171.5L39.5 168.5L43 161.5L41.5 157.5L36 169L33.5 174.5L31 179.5L26.5 182.5L29 188L24.5 191.5L19.5 194.5L16 192L19 188.5L16.5 183L13.5 188.5L10 187.5L12.5 178L17 176.5L23 172.5C23.8333 172.833 25.6 173.5 26 173.5C26.4 173.5 28.1667 170.5 29 169L35 162.5L38 156.5L35 154L39.5 152.5L43.5 145L47 138.5L43.5 138L54.5 124L39.5 139.5V146L36 149.5L32.5 147.5L28.5 149.5L21.5 151.5L16.5 152.5L12.5 150L14.5 147.5H20.5L23 142.5L21.5 141L17 139.5L17.5 136.5V131L21.5 130C23.8333 129.833 28.6 129.5 29 129.5C29.4 129.5 25.8333 128.5 24 128L20 122.5L31 121L36.5 116L32 112.5L36.5 105L37.5 96.5L29.5 105L27 103.5L29.5 96L26 99L23 95L18.5 96L13.5 92L12.5 84.5L11 81.5L7.5 85.5L0 79.5L3 75H6.5L7 69L15.5 74.5L13.5 67.5L17.5 61.5L25 72L24 82.5L26.5 78L30.5 70L29.5 85.5L31 90.5L37.5 89L42 82.5L35.5 83.5L33.5 76L35 70.5L42 72L35 64.5L38.5 61L35 57.5L36.5 51.5L43 55.5L41.5 48L46 52.5L51.5 49L59.5 50.5L49 42.5V37L53 38L54.5 35L50 27L62.5 26.5L58 18L62 14L60.5 10L64 2.5L73 4L74 10L81 5L82 12L91 7.5L97.5 4L105.5 5L111 1.5L118.5 2.5L120 0H129L131.5 3L127 7.5L131 12L127 20.5L118.5 25.5L111 34.5L103.5 41.5L97.5 49L91.5 52.5H106L99.5 60.5L96 59L84.5 68L95 63.5C94.5 65.3333 93.4 69 93 69C92.6 69 87.8333 73.6667 85.5 76L101 69L110 66L120.5 60.5L130.5 64.5L139 62L155 64.5L167.5 63L173.5 69.5L175 77.5L166 90.5V100L162.5 105.5L160 115.5L150.5 124.5V131L143.5 138.5C139.833 138.667 132.5 138.9 132.5 138.5C132.5 138.1 127.5 143.667 125 146.5L139 141.5V146.5L146.5 151L140 156H133.5L126.5 165L119 166.5L111.5 164L108 166.5L121 169.5L132.5 172L141.5 165L147.5 168L152.5 170.5L162 174L169.5 185L180.5 196L182 212.5L189.5 233L196 251.5L213.5 258.5L222 268.5L233 281L230 288.5L240.5 309.5L228 305.5H212.5L230 308.5L240 317.5L248.5 333L244 343L238.5 353L251 356.5L258 347.5H275L292 356.5L298 370L294.5 384L292 397.5L284 403H278.5L280 409L278.5 414L270 413L262.5 415.5L270 418L266.5 426.5L251 431.5H260L258 436L266.5 433.5V438L286.5 436L284 440L286.5 447L275 452L270 461L258 465L244 471.5L230 467L210 471.5L198 468.5L191.5 465L185 471.5H176L169 479.5L157 477L151.5 481.5L139.5 473.5L118 477L114.5 492L110 499.5H105.5L100 494.5L92 492L73 494.5L61 501.5V510L56.5 512.5L46.5 503.5Z" fill="#D9D9D9"/>
</svg>
