<svg width="176" height="225" viewBox="0 0 176 225" fill="none" xmlns="http://www.w3.org/2000/svg">
<path d="M143.5 78.5L148.5 82.5H152L148.5 76L154.5 79.5L159 76L161.5 72.5V69L165.5 66L169 69L172.5 65V61H167.5L169 55L167.5 48H170L172.5 60H175.5V54L172.5 41.5L165 42L159 45.5L160.5 41.5L169 35.5L163.5 31L157 21.5V19L156 14.5V10.5L150 8.5L142 7.5L135.5 10L130 12.5L123 10L124.5 7.5L114.5 0H110.5L114.5 5.5L110.5 4L104 7L107 18L102 23L104.5 13L101.5 5.5L98 7.5L100 13L95 7.5L94 13L90 8.5L84 14L81 12.5L78 15.5L75 20L70.5 23.5L77 29.5L70.5 31L73.5 35.5L65.5 36L61.5 40.5L66.5 45L71.5 43L73.5 46.5L77 44L82 43L85 44L79 52L73.5 54L66 60L70.5 61L68.5 69L54.5 63.5L50.5 70L42.5 63.5L25 61L29.5 65L18.5 63.5L15 69H20.5V76L25 73.5L23 82.5L15 79.5L10.5 82.5L18.5 83.5L20.5 88L32.5 86.5V89.5L35.5 93L23 94.5L25 100.5L18 104L13 107.5L15 114.5H25V121L34 117.5L32.5 124H54.5L57 129L44.5 130.5L41 141.5L35.5 152.5L23 161.5L34 159H46.5L54.5 151L57 155L60 156.5L46.5 161.5L31 163.5V167.5L20.5 172L26 175.5L23 181.5L16.5 175.5V181.5L13 178.5L8 180L5.5 184.5L0.5 190.5L26 186.5L10.5 195V199L5.5 201L8 207L13 202.5L15 208.5L32.5 201L20.5 212L10.5 217H18L31 211H38L26 217H32.5L28 224.5L39.5 219.5V222.5H48L51.5 217L57 219.5L60 217H65.5L66 214.5H70.5L71.5 211L79 208.5L75.5 201L81 202.5V205.5L94 201V197H98L106 193L102 190.5L114.5 186.5H123L124.5 180L126.5 184.5L133.5 178.5L130 183H135.5L143.5 184.5L148.5 181.5L143.5 175.5L146 173.5L152 161.5V156.5L159 140.5L157 138L154.5 125.5L152 119.5L150 116.5H157L154.5 113L156 105.5L148.5 97V89.5L143.5 78.5Z" fill="#D9D9D9"/>
</svg>
