<svg width="115" height="83" viewBox="0 0 115 83" fill="none" xmlns="http://www.w3.org/2000/svg">
<path d="M82.5 78.5L87.5 82.5H91L87.5 76L93.5 79.5L98 76L100.5 72.5V69L104.5 66L108 69L111.5 65V61H106.5L108 55L106.5 48H109L111.5 60H114.5V54L111.5 41.5L104 42L98 45.5L99.5 41.5L108 35.5L102.5 31L96 21.5V19L95 14.5V10.5L89 8.5L81 7.5L74.5 10L69 12.5L62 10L63.5 7.5L53.5 0H49.5L53.5 5.5L49.5 4L43 7L46 18L41 23L43.5 13L40.5 5.5L37 7.5L39 13L34 7.5L33 13L29 8.5L23 14L20 12.5L17 15.5L14 20L9.5 23.5L16 29.5L9.5 31L12.5 35.5L4.5 36L0.5 40.5L5.5 45L10.5 43L12.5 46.5L16 44L21 43L24 44L18 52L12.5 54L5 60L9.5 61L17 65L25.5 70.5L32 76L40.5 80.5L43.5 74.5L48.5 66L51 56.5L55.5 58.5L62 66L65 74.5L71 79.5L78 77.5L82.5 78.5Z" fill="#D9D9D9"/>
</svg>
