<svg width="25" height="26" viewBox="0 0 25 26" fill="none" xmlns="http://www.w3.org/2000/svg">
<path d="M9.6 15.3636V3.54545C9.6 1.58735 7.98823 0 6 0C4.01178 0 2.4 1.58735 2.4 3.54545V15.3636H4.8L4.8 3.54545C4.8 2.89275 5.33726 2.36363 6 2.36363C6.66274 2.36363 7.2 2.89275 7.2 3.54545L7.2 15.3636H9.6Z" fill="black"/>
<path d="M7.2 16.7472C8.59823 17.2339 9.6 18.5472 9.6 20.0909C9.6 22.049 7.98823 23.6364 6 23.6364C4.01178 23.6364 2.4 22.049 2.4 20.0909C2.4 18.5472 3.40177 17.2339 4.8 16.7472V14.3C2.06131 14.8475 0 17.2321 0 20.0909C0 23.3544 2.68629 26 6 26C9.31371 26 12 23.3544 12 20.0909C12 17.2321 9.93869 14.8475 7.2 14.3V16.7472Z" fill="black"/>
<path d="M19 24L19 3.99999M19 3.99999L24 8.99997M19 3.99999L14 8.99997" stroke="black" stroke-width="2"/>
</svg>
