<svg width="26" height="26" viewBox="0 0 26 26" fill="none" xmlns="http://www.w3.org/2000/svg">
<line x1="13" y1="1" x2="13" y2="5" stroke="black" stroke-width="2" stroke-linecap="round"/>
<line x1="13" y1="21" x2="13" y2="25" stroke="black" stroke-width="2" stroke-linecap="round"/>
<line x1="25" y1="13" x2="21" y2="13" stroke="black" stroke-width="2" stroke-linecap="round"/>
<line x1="5" y1="13" x2="1" y2="13" stroke="black" stroke-width="2" stroke-linecap="round"/>
<line x1="21.4853" y1="4.51474" x2="20.0711" y2="5.92895" stroke="black" stroke-width="2" stroke-linecap="round"/>
<line x1="7.34314" y1="18.6568" x2="5.92893" y2="20.071" stroke="black" stroke-width="2" stroke-linecap="round"/>
<line x1="21.4853" y1="21.4853" x2="20.071" y2="20.0711" stroke="black" stroke-width="2" stroke-linecap="round"/>
<line x1="7.34317" y1="7.34314" x2="5.92896" y2="5.92893" stroke="black" stroke-width="2" stroke-linecap="round"/>
<path fill-rule="evenodd" clip-rule="evenodd" d="M13 19C16.3137 19 19 16.3137 19 13C19 9.68629 16.3137 7 13 7C9.68629 7 7 9.68629 7 13C7 16.3137 9.68629 19 13 19ZM13 17C15.2091 17 17 15.2091 17 13C17 10.7909 15.2091 9 13 9C10.7909 9 9 10.7909 9 13C9 15.2091 10.7909 17 13 17Z" fill="black"/>
</svg>
